<svg xmlns="http://www.w3.org/2000/svg" height="477" width="475.92"><defs><clipPath id="a"><path d="M0 0h3569v3577.55H0z"/></clipPath></defs><g clip-path="url(#a)" transform="matrix(.13333 0 0 -.13333 0 477)"><path d="M1062.73 976.039c-57.5-282.738-171.418-553.207-375.382-553.207-155.137 0-259.914 124.297-259.914 347.188 0 437.91 357.461 641.86 707.876 782.15-11.77-205.08-44.07-435.94-72.58-576.131zM2903.4 695.391c-84.4 314.059-63.89 884.029-30.75 1294.019 247.24 43.78 426.77 68.92 513.43 89.7 133.18 31.98 183.37 148.94 183.37 293.57 0 41.9-17.35 131.43-45.8 161.78-188.95-24.63-398.1-60.51-606.74-96.22 41.22 371.62 96.72 803.9 115.83 958.5 12.69 102.56 2.87 166.97-103.41 179.59-60.41 7.16-239.46-19.08-296.37-28.42-93.61-15.34-129.23-95.12-141.12-157.3-45.24-237.22-88.43-623.97-118.93-1047.65-215.75-42.5-466.79-97.77-675.37-151.98 19.21 348.7 35.4 701.54 23.3 895.64-17.77 284.06-208.72 470.52-458.55 470.52-319.009 0-556.333-106.89-749.067-269.73-125.989-106.5-199.239-228.18-199.239-325.72 0-99.61 82.633-227.54 214.375-227.54 101.953 139.34 370.664 380.89 505.041 380.89 134.05 0 161.89-94.42 161.89-213.02 0-93.3-18-514.58-36.27-880.87C535.367 1761.33 0 1467.6 0 749.32 0 308.148 262.113 3.46 687.496 3.46c504.854 0 815.074 434.552 897.734 934.45 40.92 247.48 75.87 516.68 86.68 789.21 211.92 55.42 462.4 111.87 673.51 157.51-28.93-578.79-37.95-1173.118 91.69-1479.9C2537.86 166.352 2736.86 0 3052.48 0c197.63 0 356.71 62.54 446.65 151 40.67 40.02 60 104.332 60 154.289 0 76.16-43.2 149.031-105.83 190.902-72.22-40.929-171.79-66.152-252.21-66.152-167.59 0-256.13 110.68-297.69 265.352" fill="#fff"/></g></svg>