<svg xmlns="http://www.w3.org/2000/svg" height="291.733" width="519.453"><defs><clipPath id="a"><path d="M0 2187.97V0h3895.93v2187.97z"/></clipPath></defs><g clip-path="url(#a)" fill="#fff" transform="matrix(.13333 0 0 -.13333 0 291.733)"><path d="M224.562 1073.04c-41.796 0-74.578 36.97-74.578 112.51 0 138.36 104.34 237.69 218.629 294.74-7.304-80.75-18.57-158.79-26.504-212.09-14.382-96.7-48.433-195.16-117.547-195.16zm2437.258 446.64c1.79 103.89 42.66 225.48 111.33 223.22 22.25-.72 33.91-10.84 49.62-26.09-4.7-55.83-17.13-137.69-31.05-200.45-13.95-62.77-32.42-119.9-73.65-118.55-39.65 1.31-57.62 41.53-56.25 121.87zM2211.48 156.93c-34.21-16.16-49.51-22.782-95.55-24.469-78.17-2.84-126.26 60.488-142.8 108.668-37.08 108.051-15.62 290.57-8.56 417.871 9.14 164.379 13.89 228.93 15.55 263.309 3.89 80.211-28.92 161.851-119.94 158.531-84.6-3.08-191.75-101.36-237.48-204.879 8.01 131.279-38.96 234.159-133.4 230.739-99.58-3.64-195.11-148.212-224.36-212.802 2.33 43.672 2.27 48.774 4 80.102 2.14 39.12-12.33 75.16-67.52 75.16-23.04 0-37.5-1.47-71.25 1.72-71.49 6.83-141.912 38.06-175.397 152.84-29.437 100.94-21.82 298.04-14.128 429.65 64.685 9.85 111.345 15.83 153.855 15.52-12.16-133.32-20.95-267.69-11.73-335.3 8.91-65.41 44.6-126.85 129.79-127.45 78.76-.54 143.89 61.04 183.25 115.41 22.78-50.52 53.49-83.96 109.19-84.35 47.19-.32 101.73 32.12 141.52 76.32-1.15-21.11-1.08-35.23 1.35-44.32 4.46-16.64 16.13-22.77 35.42-23.11 18.49-.3 76.33 9.16 106.05 17.5 20.79 5.84 22.45 21.2 24.79 56.64 2.35 35.33 10.73 162.41 21.3 234.01 9.93 67.43 66.28 139.22 99.62 138.67 17.51-.3 28.27-17.36 28.31-39.06.07-27.86-30.7-297.04-30.57-342.06.07-32.13 12.03-40.39 35.63-40.79 23.54-.4 69.9 2.02 102.03 7.92 10.31 1.88 17.66 6.53 21.66 15.16 5.21 11.17 5.6 28.15 7.68 45.95 4.31 37.15 14.67 195.84 23.84 240.94 13.15 64.61 62.82 114.91 92.54 114.4 19.83-.33 30.43-25.53 28.09-51.9-2.62-29.7-22.18-193.83-22.07-250.07.19-77.68 46.38-125.08 122.19-126.36 74.92-1.27 141.28 44.03 186.76 84.28 30.54-50.64 76.97-78.85 134.88-80.75 67.52-2.23 117.3 45.31 155.91 115.84 8.7-56.01 49.22-107.71 112.44-109.78 44.01-1.44 90.98 25.12 126.52 54.26-1.16-16.45-1.3-28.18-.17-36.98 2.19-17.03 15.3-23.3 34.56-24.28 19.28-.98 77.72-3.67 105.74 4.31 20.79 5.9 23.22 20.42 26.9 55.72 3.62 35.21 18.53 172.75 31.75 243.89 12.44 67.02 67.27 126.33 105.82 124.39 21.74-1.11 30.47-21.92 29.69-43.6-.48-13.62-8.32-63.62-16.14-121.27-7.79-57.65-15.31-113.53-16.28-141.3-3.14-89.9 31.62-149.02 123.98-153.71 57.57-2.91 113.28 27.08 131.48 48.78 8.39 10.03 12.78 20.26 13.19 32.29.86 24.89-9 41.48-25.26 55.49-13.64-6.28-30.97-11.3-45.45-10.56-23.41 1.19-31.36 22.75-30.41 50.58 1.1 30.97 7.78 74.86 16.1 128.33 9.53 67.59 19.58 138.72 21.13 183.33 2.38 67.43-40.33 124.28-105.39 127.57-64.26 3.25-139.47-40.65-194.81-103.78 2.82 19.15 4.46 35.16 6.06 50.08 2.06 19.3-6.27 35.7-25.55 36.68-19.28.98-58.1 1.33-87.56-3.33-20.49-3.25-35.89-14.27-40.11-43.02-11.88-80.78-34.67-247.19-46.35-339.04-24.14-22.23-53.31-43.69-76.31-42.93-24.63.81-39.06 18.97-38.5 52.68 1.04 58.92 35.24 282.32 39.28 332 1.64 20.01-8.94 40.49-33.07 41.28-20.87.68-47.63-8.62-81.01-17.17-29.57 26.69-70.35 61.33-134.64 63.43-158.31 5.18-255.81-151.24-259.07-341.89-.63-37.74 2.4-71.93 8.75-102.34-25.26-18.65-49.22-31.44-65.96-31.16-24.1.4-41.84 19.47-41.91 52.66-.04 27.5 8.88 96.68 14.14 143.87 6.31 56.69 15.28 113.84 15.22 143.86-.16 64.3-41.57 111.27-98.8 112.25-71.26 1.2-139.44-47.66-190.66-98.76-11.91 58.06-45.7 96.13-97.15 97.01-64.28 1.09-139.25-50.14-186.26-112.57 2.09 19.26 3.22 35.84 4.79 58.85 1.31 19.36-7.6 35.49-26.88 35.81-19.29.34-64.16-7.76-93.41-13.41-20.37-3.94-35.34-15.48-38.49-44.35-8.25-75.77-26.16-233.67-36.25-331.98-30.33-43.52-56.81-72.22-82.08-72.05-27.32.19-33.91 28.63-34.12 70.41-.22 41.8 32.13 288.04 35.19 321.24 3.51 38.35-14.74 48.09-37.22 47.39-28.4-.86-79.25-8.02-107.09-13.17-26.43-4.9-28.38-35.28-30.74-64.08-3.02-36.95-19.39-184.45-27.57-238.77-12.42-82.41-49.69-127.04-87.74-126.78-38.03.27-42.66 41.44-42.89 83.22-.21 41.79 26.73 239.31 26.53 276.28-.19 36.97-5.18 65.28-48.57 67.33-52.93 2.47-152.95-2.84-270.429-17.08 13.968 132.16 39.816 306.55 46.98 364.16 4.309 34.75-1.578 56.55-37.594 60.85-20.468 2.44-83.73-6.41-103.007-9.57-31.727-5.19-43.817-32.22-47.852-53.29-16.551-86.53-32.324-234.77-42.785-390.69-69.891-13.49-141.5-30.16-205.012-47.07 6.93 123.27 11.598 263.03 7.328 331.21-6.011 96.26-61.074 159.45-145.726 159.45-90.188 0-194.274-48.49-259.578-103.67-42.711-36.08-66.735-77.85-66.735-110.91 0-33.75 16.902-64.31 61.543-64.31 34.539 47.23 124.938 130.08 175.414 130.08 45.418 0 57.012-39.44 57.012-79.62 0-32.85-6.586-192.72-13.012-321.32C202.484 1556.6 0 1421.38 0 1178.52c0-149.48 100.254-247.59 231.023-247.59 171.09 0 260.774 154.96 288.786 324.36 14.101 85.25 24.972 195.4 32.472 291.64 65.301 19.84 138.953 39.98 206.66 55-10.464-195.54-16.656-374.01 36.719-500.53 52.387-124.22 150.727-200.779 313.6-200.779-6.43-96.441-12.12-253.402-18.47-363.859-8.4-146.141-21.65-366.352-19.62-411.332 1.54-34.258 19.3-47.54 44.99-46.621 25.7.93 70.08 11.363 85.89 17.3 12.97 4.879 23.28 11.153 30.09 22.539 6.16 10.282 9.11 25.524 9.74 45.391 1.69 53.691 8.82 165.973 15.71 269.609 5.55 83.891 10.13 150.563 23.77 215.411 27.21 129.39 87.48 273.211 144.23 275.293 36.42 1.32 39.43-67.223 31.91-161.852-7.53-94.672-25.14-440.602-23.24-482.352 1.63-36.378 12.95-55.269 44.27-54.136 25.68.918 71.56 6.129 90.5 14.359 11.92 5.149 20.73 9.867 26.59 20.859 5.17 9.649 8.01 24.122 8.65 47.989 1.44 54.883 14.48 276.601 30.16 346.929 29.69 133.012 97.59 225.301 136.14 226.743 38.55 1.359 29.15-93.801 22.28-202.391-13.69-215.461-31.68-401.91 33.94-538.25C1876.51 38.98 1975.8-2.852 2076.25.14c78.18 2.282 128.65 26.348 159.18 54.59 13.87 12.84 19.14 31.56 18.21 43.59-1.89 24.84-20.73 45.539-42.16 58.61"/><path d="M3470.12 758.961c27.32.258 43.67-21.289 43.57-45.371-.24-65.738-44.37-120.59-126.81-121.43-12.68-.101-23.95.711-34.24 2.481 12.94 84.359 57.99 163.699 117.48 164.32zm-551.6-230.531c-9.4-59-33.01-98.539-71.8-100.059-46.06-1.82-62.91 37.348-64.49 108.809-2.38 106.859 35.04 233.398 112.95 236.468 19.27.762 36.52-9.089 50.32-24.078-5.83-75.058-17.58-162.09-26.98-221.14zm-568.98-13.282c-8.35-59.257-37.8-100-74.48-101.257-46.06-1.551-63.83 40.968-66.64 112.437-4.24 106.813 35.31 243.594 115.62 246.344 22.5.777 38.21-10.492 50.3-22.942-4.54-75.179-16.41-175.32-24.8-234.582zm1417.14-59.777c-87.86-.902-217.13-79.199-321.05-79.199-77.26 0-100.22 66.906-98.85 128.828 26.11-4.691 54.53-6.738 85.72-6.43 111.46 1.129 226.42 74.52 226.89 203.09.34 88.93-65.76 175.051-192.22 173.789-186.45-1.898-293.49-190.508-294.17-366.23-.09-26.297 2.31-51.887 7.35-76.078-17.46-12.961-38.85-24.672-54.83-24.832-30.56-.297-39.86 20.492-40.58 52.64-.7 32.11 24.45 235.821 32.89 309.582 9.38 81.867 38.98 298.269 37.92 329.309-.61 17.68-7.35 27.52-28.98 30.98-21.63 3.42-74.38 5.1-89.37 4.51-23.57-.91-40.15-11.53-45.25-45.41-5.02-33.27-16.08-141.33-28.19-234.022-27.3 22.25-61.75 41.813-109.14 39.942-156.63-6.168-251.79-173.18-244.72-380.731.94-27.629 4.16-53.41 9.43-77.058-19.2-15.77-44.34-32.571-60.6-33.09-30.54-1.051-40.19 19.508-41.47 51.629-1.28 32.14 24.94 256.691 30.95 330.769 1.52 18.961 2.02 32.571-2.18 41.211-6.64 13.621-21.75 15.719-38.1 13.692-17.55-2.211-36.17-6.602-63.77-13.981-33.29 34.758-77.27 68.649-141.53 66.438-171.87-5.918-274.64-177.578-266.05-394.668 5.69-143.449 70.6-238.801 176.6-235.153 82.48 2.821 111.76 47.602 153.61 107.731 11.65-70.379 61.39-104.039 116.02-102.149 51.1 1.739 112.67 37.668 168.45 85.45 30.42-49.352 76.44-77.121 134.87-74.828 72.79 2.859 110.35 47.777 155.09 105.308 19.09-70.012 51.45-112.808 120.79-110.07 58.22 2.289 99.33 31.051 150.26 72.93 35.75-58.579 96.73-97.051 186.94-97.051 108.79 0 240.21 40.062 299.13 40.672 66.46.66 113.55-12.782 163.84-34.77 12.53 11.949 32.96 43.027 33.54 83.969.85 61.949-41.35 114.172-129.24 113.281"/></g></svg>