<?xml version="1.0" encoding="utf-8"?>
<!-- Generator: Adobe Illustrator 15.1.0, SVG Export Plug-In  -->
<!DOCTYPE svg PUBLIC "-//W3C//DTD SVG 1.1//EN" "http://www.w3.org/Graphics/SVG/1.1/DTD/svg11.dtd" [
	<!ENTITY ns_flows "http://ns.adobe.com/Flows/1.0/">
]>
<svg version="1.1"
	 xmlns="http://www.w3.org/2000/svg" xmlns:xlink="http://www.w3.org/1999/xlink" xmlns:a="http://ns.adobe.com/AdobeSVGViewerExtensions/3.0/"
	 x="0px" y="0px" width="120px" height="120px" viewBox="0 0 120 120" overflow="visible" enable-background="new 0 0 120 120"
	 xml:space="preserve">
<defs>
</defs>
<rect display="none" opacity="0.5" fill="#B3A1A1" width="120" height="120"/>
<circle id="background_1_" opacity="0.5" fill="#B3A1A1" cx="59.875" cy="59.875" r="59.875"/>
<path display="none" opacity="0.1" d="M68.454,29.198C62.329,22.319,50.623,17.54,50.623,17.54c-0.476,0.86-2.821,5.553-2.821,5.553
	C36.88,40.824,10.52,54.47,10.52,54.47l-1.324,4.838c2.999,3.592,7.416,7.04,7.416,7.04c4.337,1.005,4.952,1.709,7.655,3.304
	c0.667,0.393,2.574,1.966,5.068,4.112c7.621,6.557,20.73,18.469,20.73,18.469c7.279,6.912,5.501,10.724,12.601,18.604
	c3.736,4.639,13.302,7.643,15.029-0.361c-2.712-0.53-4.105-2.487-3.603-5.891c-5.333-0.612-6.333-2.732-6.114-5.696
	c-9.262-1.104-4.562-8.474-4.562-8.474l-10.354-8.297c0,0-14.409-11.552-15.739-13.572c-0.002-0.003-0.006-0.008-0.008-0.011
	C36.03,66.546,48.902,58.316,53.26,56.223c3.536-1.698,12.615-3.354,19.006-4.369l6.826-1.002
	C78.555,46.523,74.579,36.076,68.454,29.198z"/>
<path id="blade_2_" display="none" fill="#FFFFFF" d="M81.904,20.958C76.998,12.393,66.241,5.09,66.241,5.09
	c-0.611,0.847-3.699,5.507-3.699,5.507c3.595,3.477,7.931,8.505,11.502,15.108c4.204,7.777,6.561,14.972,7.882,20.499l6.898,0.151
	C89.009,41.568,86.811,29.524,81.904,20.958z"/>
<path id="handle_2_" display="none" fill="#FFFFFF" d="M62.728,108.392c-5.703-9.827-3.321-13.636-9.359-22.447
	c0,0-10.964-15.288-17.399-23.776c2.134-2.57,4-3.207,8.149-4.089c0.189-0.041,0.388-0.08,0.59-0.118
	c0.978,2.431,13.284,17.563,13.284,17.563l8.843,10.87c0,0-5.851,7.136,3.102,10.012c-0.705,3.172-0.069,5.651,5.09,7.282
	c-1.057,3.598-0.006,5.971,2.582,7.037C74.586,119.087,65.646,114.097,62.728,108.392z"/>
<circle id="eye_2_" display="none" fill="#FFFFFF" cx="27.527" cy="42.404" r="2.496"/>
<path id="head_2_" display="none" d="M62.46,47.494c3.768-1.199,12.995-1.348,19.466-1.289c-1.321-5.527-3.678-12.722-7.882-20.499
	c-3.571-6.603-7.907-11.631-11.502-15.108C48.845,27.835,20.595,37.846,20.595,37.846l-2.104,5.004
	c2.365,4.437,6.153,8.975,6.153,8.975c4.112,1.875,4.602,2.75,7.005,4.969c0.593,0.546,2.214,2.598,4.32,5.375
	c2.134-2.57,4-3.207,8.149-4.089c0.189-0.041,0.388-0.08,0.59-0.118c-0.002-0.004-0.004-0.01-0.006-0.013
	C43.764,55.559,57.816,48.973,62.46,47.494z M28.075,44.839c-1.345,0.302-2.68-0.543-2.982-1.888
	c-0.302-1.345,0.543-2.68,1.888-2.982c1.345-0.303,2.68,0.542,2.982,1.888C30.265,43.201,29.419,44.536,28.075,44.839z"/>
<path display="none" opacity="0.5" fill="#B3A1A1" d="M59.875,0C26.807,0,0,26.807,0,59.875s26.807,59.875,59.875,59.875
	s59.875-26.807,59.875-59.875S92.943,0,59.875,0z M88.824,46.356l-6.898-0.151c-1.25-0.011-2.604-0.015-4-0.004
	c0.619,1.865,1.021,3.484,1.166,4.651l-6.826,1.002c-6.391,1.015-15.47,2.67-19.006,4.369c-1.587,0.762-4.303,2.339-7.053,4.131
	c3.52,5.005,11.786,15.17,11.786,15.17l8.843,10.87c0,0-5.851,7.136,3.102,10.012c-0.705,3.172-0.069,5.651,5.09,7.282
	c-0.884,3.009-0.277,5.148,1.453,6.396c0.372,0.165,0.768,0.305,1.214,0.392c-1.727,8.004-11.293,5-15.029,0.361
	c-7.1-7.879-5.322-11.691-12.601-18.604c0,0-13.109-11.913-20.73-18.469c-2.495-2.146-4.402-3.719-5.068-4.112
	c-2.703-1.595-3.318-2.299-7.655-3.304c0,0-4.417-3.447-7.416-7.04l1.324-4.838c0,0,4.765-2.47,11.076-6.664
	c-1.046-1.485-2.183-3.227-3.104-4.957l2.104-5.004c0,0,13.491-4.783,26.348-13.427c0.293-0.44,0.584-0.881,0.858-1.326
	c0,0,2.345-4.692,2.821-5.553c0,0,1.376,0.562,3.432,1.578c3.129-2.601,6.042-5.443,8.488-8.52c0,0,3.087-4.661,3.699-5.507
	c0,0,10.757,7.303,15.663,15.868S89.009,41.568,88.824,46.356z"/>
<path display="none" opacity="0.5" fill="#B3A1A1" d="M37.315,68.535c0.002,0.003,0.005,0.008,0.008,0.011
	c0.748,1.136,5.634,5.288,9.766,8.704c-2.588-3.564-5.604-7.693-8.297-11.316C37.609,67.076,36.981,68.018,37.315,68.535z"/>
<path display="none" opacity="0.5" fill="#B3A1A1" d="M44.703,57.948c0.001,0.003,0.004,0.009,0.006,0.013
	c0.176,0.438,0.724,1.293,1.498,2.393c2.75-1.792,5.466-3.369,7.053-4.131c3.536-1.698,12.615-3.354,19.006-4.369l6.826-1.002
	c-0.145-1.167-0.547-2.786-1.166-4.651c-5.833,0.042-12.426,0.326-15.466,1.293C57.816,48.973,43.764,55.559,44.703,57.948z"/>
<path display="none" opacity="0.1" d="M44.703,57.948c0.001,0.003,0.004,0.009,0.006,0.013c0.176,0.438,0.724,1.293,1.498,2.393
	c2.75-1.792,5.466-3.369,7.053-4.131c3.536-1.698,12.615-3.354,19.006-4.369l6.826-1.002c-0.145-1.167-0.547-2.786-1.166-4.651
	c-5.833,0.042-12.426,0.326-15.466,1.293C57.816,48.973,43.764,55.559,44.703,57.948z"/>
<path display="none" opacity="0.5" fill="#B3A1A1" d="M62.728,108.392c-5.703-9.827-3.321-13.636-9.359-22.447
	c0,0-2.737-3.817-6.279-8.695c-4.132-3.416-9.018-7.567-9.766-8.704c-0.002-0.003-0.006-0.008-0.008-0.011
	c-0.334-0.517,0.294-1.458,1.476-2.602c-0.998-1.342-1.952-2.616-2.822-3.764c-2.106-2.778-3.728-4.829-4.32-5.375
	c-2.403-2.218-2.893-3.093-7.005-4.969c0,0-1.412-1.693-3.048-4.018C15.285,52,10.52,54.47,10.52,54.47l-1.324,4.838
	c2.999,3.592,7.416,7.04,7.416,7.04c4.337,1.005,4.952,1.709,7.655,3.304c0.667,0.393,2.574,1.966,5.068,4.112
	c7.621,6.557,20.73,18.469,20.73,18.469c7.279,6.912,5.501,10.724,12.601,18.604c3.736,4.639,13.302,7.643,15.029-0.361
	c-0.446-0.087-0.842-0.228-1.214-0.392c0.339,0.245,0.705,0.467,1.128,0.642C74.586,119.087,65.646,114.097,62.728,108.392z"/>
<path display="none" opacity="0.1" d="M62.728,108.392c-5.703-9.827-3.321-13.636-9.359-22.447c0,0-2.737-3.817-6.279-8.695
	c-4.132-3.416-9.018-7.567-9.766-8.704c-0.002-0.003-0.006-0.008-0.008-0.011c-0.334-0.517,0.294-1.458,1.476-2.602
	c-0.998-1.342-1.952-2.616-2.822-3.764c-2.106-2.778-3.728-4.829-4.32-5.375c-2.403-2.218-2.893-3.093-7.005-4.969
	c0,0-1.412-1.693-3.048-4.018C15.285,52,10.52,54.47,10.52,54.47l-1.324,4.838c2.999,3.592,7.416,7.04,7.416,7.04
	c4.337,1.005,4.952,1.709,7.655,3.304c0.667,0.393,2.574,1.966,5.068,4.112c7.621,6.557,20.73,18.469,20.73,18.469
	c7.279,6.912,5.501,10.724,12.601,18.604c3.736,4.639,13.302,7.643,15.029-0.361c-0.446-0.087-0.842-0.228-1.214-0.392
	c0.339,0.245,0.705,0.467,1.128,0.642C74.586,119.087,65.646,114.097,62.728,108.392z"/>
<path display="none" opacity="0.5" fill="#B3A1A1" d="M50.623,17.54c-0.476,0.86-2.821,5.553-2.821,5.553
	c-0.274,0.445-0.565,0.886-0.858,1.326c2.426-1.631,4.826-3.401,7.111-5.301C51.999,18.102,50.623,17.54,50.623,17.54z"/>
<path display="none" opacity="0.1" d="M50.623,17.54c-0.476,0.86-2.821,5.553-2.821,5.553c-0.274,0.445-0.565,0.886-0.858,1.326
	c2.426-1.631,4.826-3.401,7.111-5.301C51.999,18.102,50.623,17.54,50.623,17.54z"/>
<path display="none" fill="#FFFFFF" d="M76.481,110.083c-1.73-1.247-2.337-3.387-1.453-6.396c-5.159-1.63-5.795-4.109-5.09-7.282
	c-8.953-2.876-3.102-10.012-3.102-10.012l-8.843-10.87c0,0-8.266-10.166-11.786-15.17c-0.774-1.1-1.322-1.955-1.498-2.393
	c-0.202,0.039-0.401,0.077-0.59,0.118c-4.148,0.883-6.015,1.519-8.149,4.089c0.87,1.148,1.825,2.422,2.822,3.764
	c2.693,3.623,5.709,7.752,8.297,11.316c3.542,4.878,6.279,8.695,6.279,8.695c6.039,8.812,3.657,12.621,9.359,22.447
	c2.919,5.706,11.858,10.695,14.882,2.333C77.186,110.55,76.82,110.328,76.481,110.083z"/>
<path display="none" fill="#FFFFFF" d="M29.962,41.856c-0.004-0.018-0.013-0.033-0.017-0.05c-0.325-1.314-1.638-2.136-2.965-1.837
	c-1.345,0.302-2.189,1.637-1.888,2.982c0.159,0.708,0.608,1.27,1.189,1.607c0.524,0.303,1.156,0.424,1.793,0.281
	C29.419,44.536,30.265,43.201,29.962,41.856z"/>
<path display="none" d="M74.044,25.706c-3.571-6.603-7.907-11.631-11.502-15.108c-2.445,3.077-5.358,5.919-8.488,8.52
	c-2.286,1.9-4.686,3.67-7.111,5.301c-12.857,8.644-26.348,13.427-26.348,13.427l-2.104,5.004c0.922,1.73,2.059,3.471,3.104,4.957
	c1.637,2.325,3.048,4.018,3.048,4.018c4.112,1.875,4.602,2.75,7.005,4.969c0.593,0.546,2.214,2.598,4.32,5.375
	c2.134-2.57,4-3.207,8.149-4.089c0.189-0.041,0.388-0.08,0.59-0.118c-0.002-0.004-0.004-0.01-0.006-0.013
	c-0.939-2.389,13.114-8.975,17.757-10.454c3.04-0.968,9.633-1.251,15.466-1.293c1.396-0.01,2.75-0.007,4,0.004
	C80.605,40.678,78.248,33.483,74.044,25.706z M28.075,44.839c-0.637,0.143-1.269,0.022-1.793-0.281
	c-0.582-0.337-1.03-0.899-1.189-1.607c-0.302-1.345,0.543-2.68,1.888-2.982c1.327-0.299,2.64,0.523,2.965,1.837
	c0.004,0.018,0.013,0.033,0.017,0.05C30.265,43.201,29.419,44.536,28.075,44.839z"/>
</svg>
