<?xml version="1.0" encoding="utf-8"?>
<!-- Generator: Adobe Illustrator 15.1.0, SVG Export Plug-In . SVG Version: 6.00 Build 0)  -->
<!DOCTYPE svg PUBLIC "-//W3C//DTD SVG 1.1//EN" "http://www.w3.org/Graphics/SVG/1.1/DTD/svg11.dtd">
<svg version="1.1" id="Layer_1" xmlns="http://www.w3.org/2000/svg" xmlns:xlink="http://www.w3.org/1999/xlink" x="0px" y="0px"
	 width="120px" height="120px" viewBox="0 0 120 120" enable-background="new 0 0 120 120" xml:space="preserve">
<g>
	<path fill="#FFFFFF" d="M3.775,80.93C1.295,74.264,0.079,67.437,0,60.711V120h58.54C34.747,119.412,12.583,104.604,3.775,80.93z"/>
	<path fill="#FFFFFF" d="M39.08,3.773C45.719,1.303,52.517,0.087,59.217,0H0v59.364C0.263,35.257,15.137,12.682,39.08,3.773z"/>
	<path fill="#FFFFFF" d="M116.229,39.087c2.452,6.59,3.668,13.336,3.771,19.988V0H60.824
		C84.859,0.337,107.342,15.201,116.229,39.087z"/>
	<path fill="#FFFFFF" d="M120,61.174c-0.47,23.911-15.306,46.225-39.075,55.07c-2.201,0.819-4.418,1.495-6.645,2.043
		c-2.512-1.119-3.646-3.447-2.587-7.052c-5.17-1.634-5.808-4.118-5.101-7.297c-8.971-2.882-3.108-10.033-3.108-10.033l-8.862-10.892
		c0,0-12.332-15.165-13.312-17.6c-0.203,0.038-0.401,0.077-0.591,0.118c-4.157,0.885-6.027,1.523-8.166,4.098
		c6.448,8.506,17.435,23.826,17.435,23.826c6.051,8.83,3.665,12.647,9.379,22.494c1.211,1.411,2.326,2.749,3.352,4.011
		c-0.38,0.018-0.759,0.031-1.139,0.041H120V61.174z"/>
	<circle fill="#FFFFFF" cx="24.093" cy="49.823" r="2.501"/>
	<path d="M59.099,54.925c3.775-1.202,13.022-1.352,19.507-1.292c-1.324-5.539-3.686-12.749-7.898-20.542
		c-3.578-6.617-7.923-11.656-11.526-15.14C45.455,35.225,17.146,45.256,17.146,45.256l-2.108,5.014
		c2.37,4.446,6.166,8.994,6.166,8.994c4.121,1.879,4.612,2.756,7.02,4.979c0.594,0.548,2.219,2.603,4.329,5.387
		c2.139-2.575,4.009-3.213,8.166-4.098c0.19-0.041,0.389-0.08,0.591-0.118c-0.002-0.004-0.004-0.01-0.006-0.014
		C40.363,63.006,54.445,56.406,59.099,54.925z M24.642,52.264c-1.347,0.303-2.686-0.544-2.988-1.892
		c-0.303-1.347,0.544-2.686,1.891-2.988c1.348-0.303,2.686,0.544,2.988,1.892C26.836,50.623,25.989,51.96,24.642,52.264z"/>
	<path opacity="0.5" fill="#B3A1A1" d="M59.367,115.949c-5.714-9.847-3.328-13.664-9.379-22.494c0,0-10.987-15.32-17.435-23.826
		c-2.11-2.784-3.735-4.839-4.329-5.387c-2.408-2.223-2.899-3.1-7.02-4.979c0,0-3.796-4.547-6.166-8.994l2.108-5.014
		c0,0,28.309-10.031,42.035-27.305c1.403-1.765,2.654-3.605,3.707-5.519c14.641,10.753,21.051,19.986,22.63,41.353
		c0,0-2.938-0.115-6.913-0.152c-6.484-0.06-15.731,0.09-19.507,1.292c-4.653,1.481-18.735,8.082-17.794,10.475
		c0.001,0.004,0.004,0.009,0.006,0.014c0.98,2.435,13.312,17.6,13.312,17.6l8.862,10.892c0,0-5.863,7.15,3.108,10.033
		c-0.707,3.179-0.069,5.663,5.101,7.297c-1.06,3.605,0.075,5.933,2.587,7.052c2.226-0.548,4.444-1.225,6.645-2.043
		c23.77-8.845,38.605-31.159,39.075-55.07v-2.099c-0.104-6.651-1.319-13.398-3.771-19.988C107.342,15.201,84.859,0.337,60.824,0
		h-1.607c-6.7,0.087-13.498,1.303-20.137,3.773C15.137,12.682,0.263,35.257,0,59.364v1.348c0.079,6.726,1.295,13.552,3.775,20.219
		c8.808,23.673,30.971,38.481,54.765,39.07h3.04c0.379-0.01,0.759-0.023,1.139-0.041C61.693,118.697,60.578,117.36,59.367,115.949z"
		/>
</g>
</svg>
