<?xml version="1.0" encoding="utf-8"?>
<!-- Generator: Adobe Illustrator 15.1.0, SVG Export Plug-In . SVG Version: 6.00 Build 0)  -->
<!DOCTYPE svg PUBLIC "-//W3C//DTD SVG 1.1//EN" "http://www.w3.org/Graphics/SVG/1.1/DTD/svg11.dtd">
<svg version="1.1" id="Layer_1" xmlns="http://www.w3.org/2000/svg" xmlns:xlink="http://www.w3.org/1999/xlink" x="0px" y="0px"
	 width="120px" height="120px" viewBox="0 0 120 120" enable-background="new 0 0 120 120" xml:space="preserve">
<path opacity="0.5" fill="#B3A1A1" d="M58.54,120c-23.793-0.588-45.957-15.396-54.765-39.07C1.295,74.264,0.079,67.437,0,60.711
	v-1.348C0.263,35.257,15.137,12.682,39.08,3.773C45.719,1.303,52.517,0.087,59.217,0h1.607
	c24.035,0.337,46.518,15.201,55.404,39.087c2.452,6.59,3.668,13.336,3.771,19.988v2.099c-0.47,23.911-15.306,46.225-39.075,55.07
	c-2.201,0.819-4.418,1.495-6.645,2.043c-2.512-1.119-3.646-3.447-2.587-7.052c-5.17-1.634-5.808-4.118-5.101-7.297
	c-8.971-2.882-3.108-10.033-3.108-10.033l-8.862-10.892c0,0-12.332-15.165-13.312-17.6c-0.002-0.004-0.004-0.01-0.006-0.014
	c-0.941-2.394,13.141-8.994,17.794-10.475c3.775-1.202,13.022-1.352,19.507-1.292c3.975,0.037,6.913,0.152,6.913,0.152
	c-1.579-21.367-7.99-30.599-22.63-41.353c-1.052,1.914-2.304,3.754-3.707,5.519C45.455,35.225,17.146,45.256,17.146,45.256
	l-2.108,5.014c2.37,4.446,6.166,8.994,6.166,8.994c4.121,1.879,4.612,2.756,7.02,4.979c0.594,0.548,2.219,2.603,4.329,5.387
	c6.448,8.506,17.435,23.826,17.435,23.826c6.051,8.83,3.665,12.647,9.379,22.494c1.211,1.411,2.326,2.749,3.352,4.011"/>
<path opacity="0.2" d="M52.092,64.104c3.683-1.462,12.896-2.254,19.37-2.646c-1.706-5.433-4.564-12.461-9.31-19.942
	c-4.029-6.352-8.715-11.076-12.552-14.301C37.11,45.401,9.569,57.379,9.569,57.379l-1.754,5.149
	c2.673,4.271,6.777,8.542,6.777,8.542c4.241,1.588,4.792,2.429,7.35,4.479c0.63,0.505,2.395,2.442,4.693,5.072
	c7.025,8.036,19.051,22.554,19.051,22.554c5.251,6.621,5.051,10.501,7.871,16.476C55.674,119.877,57.822,120,60,120
	c2.895,0,5.737-0.217,8.522-0.613c-5.22-1.274-6.024-3.7-5.542-6.909c-9.15-2.251-3.799-9.792-3.799-9.792l-9.598-10.249
	c0,0-13.357-14.27-14.505-16.631c-0.002-0.004-0.005-0.009-0.006-0.013C33.965,73.47,47.553,65.906,52.092,64.104z"/>
<g>
	<path fill="#FFFFFF" d="M62.719,119.959c-1.026-1.262-2.141-2.6-3.352-4.011c-5.714-9.847-3.328-13.664-9.379-22.494
		c0,0-10.987-15.32-17.435-23.826c2.139-2.575,4.009-3.213,8.166-4.098c0.19-0.041,0.389-0.08,0.591-0.118
		c0.98,2.435,13.312,17.6,13.312,17.6l8.862,10.892c0,0-5.863,7.15,3.108,10.033c-0.707,3.179-0.069,5.663,5.101,7.297
		c-1.06,3.605-0.006,5.983,2.587,7.052C70.188,119.406,62.719,119.959,62.719,119.959z"/>
	<circle fill="#FFFFFF" cx="24.093" cy="49.823" r="2.501"/>
	<path d="M59.099,54.925c3.775-1.202,13.022-1.352,19.507-1.292c-1.324-5.539-3.686-12.749-7.898-20.542
		c-3.578-6.617-7.923-11.656-11.526-15.14C45.455,35.225,17.146,45.256,17.146,45.256l-2.108,5.014
		c2.37,4.446,6.166,8.994,6.166,8.994c4.121,1.879,4.612,2.756,7.02,4.979c0.594,0.548,2.219,2.603,4.329,5.387
		c2.139-2.575,4.009-3.213,8.166-4.098c0.19-0.041,0.389-0.08,0.591-0.118c-0.002-0.004-0.004-0.01-0.006-0.014
		C40.363,63.006,54.445,56.406,59.099,54.925z M24.642,52.264c-1.347,0.303-2.686-0.544-2.988-1.892
		c-0.303-1.347,0.544-2.686,1.891-2.988c1.348-0.303,2.686,0.544,2.988,1.892C26.836,50.623,25.989,51.96,24.642,52.264z"/>
</g>
<path display="none" opacity="0.3" d="M49.706,27.489C37.179,45.651,9.613,57.573,9.613,57.573l-1.765,5.145
	c2.666,4.276,6.76,8.556,6.76,8.556c4.238,1.596,4.788,2.438,7.34,4.493c0.63,0.507,2.39,2.447,4.684,5.082
	c7.009,8.051,19.006,22.593,19.006,22.593c6.635,8.4,4.512,12.37,10.878,21.808c1.295,1.316,2.489,2.566,3.591,3.749
	c0.395-0.045,0.786-0.098,1.177-0.149c1.522-0.242,4.312-0.718,6.901-1.33c0.383-0.098,0.771-0.183,1.151-0.288
	c0.031-0.008,0.062-0.016,0.093-0.024c0.71-0.197,1.41-0.418,2.108-0.64c-2.647-0.895-3.854-3.193-3.042-6.854
	c-5.269-1.281-6.072-3.716-5.582-6.936c-9.146-2.269-3.78-9.798-3.78-9.798l-9.578-10.269c0,0-13.328-14.297-14.471-16.66
	c-0.002-0.004-0.005-0.009-0.007-0.013c-1.1-2.325,12.503-9.862,17.046-11.654c3.685-1.455,12.901-2.229,19.375-2.608
	c-1.695-5.437-4.539-12.47-9.269-19.961C58.211,35.455,53.535,30.722,49.706,27.489z M17.565,64.059
	c-1.324,0.393-2.717-0.362-3.11-1.686c-0.393-1.324,0.361-2.717,1.685-3.11c1.324-0.394,2.716,0.361,3.109,1.686
	C19.643,62.272,18.889,63.665,17.565,64.059z"/>
</svg>
