<svg width="24" height="24" xmlns="http://www.w3.org/2000/svg"><path d="M19.043 19.042h-2.966v-4.641c0-1.107-.02-2.531-1.541-2.531-1.544 0-1.78 1.206-1.78 2.452v4.72H9.793V9.498h2.844v1.305h.04c.396-.75 1.364-1.542 2.807-1.542 3.004 0 3.559 1.976 3.559 4.547v5.234zM6.449 8.194a1.72 1.72 0 1 1-.003-3.44 1.72 1.72 0 0 1 .003 3.44zM4.963 19.042h2.97V9.498h-2.97v9.544zM20.52 2H3.475C2.661 2 2 2.646 2 3.442v17.115C2 21.353 2.661 22 3.475 22H20.52c.816 0 1.48-.647 1.48-1.443V3.442C22 2.646 21.335 2 20.52 2z" fill="#7DC9DA" fill-rule="evenodd"/></svg>