<svg xmlns="http://www.w3.org/2000/svg" width="24" height="24"><path fill="none" d="M0 0h24v24H0z"/><g fill="#353535"><path d="M9 11.5c.965 0 1.75-.785 1.75-1.75S9.965 8 9 8s-1.75.785-1.75 1.75S8.035 11.5 9 11.5zm0-2a.25.25 0 0 1 .25.25c0 .276-.5.276-.5 0A.25.25 0 0 1 9 9.5z"/><path d="M12 2C6.486 2 2 6.486 2 12c0 5.515 4.486 10 10 10s10-4.485 10-10c0-5.514-4.486-10-10-10zm0 18c-4.411 0-8-3.589-8-8s3.589-8 8-8 8 3.589 8 8-3.589 8-8 8z"/><path d="M12 16a3.972 3.972 0 0 1-3.199-1.598l-1.598 1.203A5.956 5.956 0 0 0 12 18a5.953 5.953 0 0 0 4.8-2.399l-1.6-1.202A3.966 3.966 0 0 1 12 16zm1-7h4v2h-4z"/></g></svg>