<svg width="24" height="24" xmlns="http://www.w3.org/2000/svg"><path d="M12 2C6.477 2 2 6.59 2 12.254c0 4.53 2.865 8.372 6.84 9.728.5.094.682-.222.682-.494 0-.243-.009-.888-.014-1.744-2.781.62-3.368-1.374-3.368-1.374-.455-1.185-1.11-1.5-1.11-1.5-.908-.636.068-.624.068-.624 1.004.073 1.532 1.057 1.532 1.057.892 1.567 2.34 1.114 2.91.853.091-.663.349-1.115.635-1.371-2.22-.26-4.555-1.139-4.555-5.068 0-1.119.39-2.034 1.03-2.751-.104-.26-.447-1.302.097-2.714 0 0 .84-.275 2.75 1.052a9.356 9.356 0 0 1 2.504-.346 9.37 9.37 0 0 1 2.503.346c1.91-1.327 2.747-1.052 2.747-1.052.546 1.412.203 2.455.1 2.714.64.717 1.028 1.632 1.028 2.751 0 3.94-2.338 4.806-4.566 5.06.359.316.679.942.679 1.898 0 1.37-.013 2.477-.013 2.813 0 .274.18.593.688.493C19.137 20.622 22 16.782 22 12.254 22 6.59 17.522 2 12 2" fill="#353535" fill-rule="evenodd"/></svg>