<svg width="24" height="24" xmlns="http://www.w3.org/2000/svg"><g fill="#FFF" fill-rule="evenodd"><path d="M11.997 2.006c-2.715 0-3.056.012-4.122.06-1.064.049-1.79.218-2.426.465a4.9 4.9 0 0 0-1.771 1.153 4.9 4.9 0 0 0-1.153 1.77c-.247.637-.416 1.363-.465 2.427C2.012 8.948 2 9.288 2 12.003s.012 3.056.06 4.122c.049 1.064.218 1.79.465 2.426a4.9 4.9 0 0 0 1.153 1.771 4.9 4.9 0 0 0 1.77 1.153c.636.247 1.363.416 2.427.465 1.066.048 1.407.06 4.122.06s3.055-.012 4.122-.06c1.064-.049 1.79-.218 2.426-.465a4.9 4.9 0 0 0 1.77-1.153 4.9 4.9 0 0 0 1.154-1.77c.247-.636.416-1.363.465-2.427.048-1.066.06-1.407.06-4.122s-.012-3.055-.06-4.122c-.049-1.064-.218-1.79-.465-2.426a4.9 4.9 0 0 0-1.153-1.77 4.9 4.9 0 0 0-1.77-1.154c-.637-.247-1.363-.416-2.427-.465-1.067-.048-1.407-.06-4.122-.06zm0 1.802c2.67 0 2.985.01 4.04.058.974.044 1.503.207 1.856.344a3.1 3.1 0 0 1 1.15.748c.349.35.566.683.747 1.15.137.352.3.88.344 1.856.048 1.054.058 1.37.058 4.04 0 2.668-.01 2.985-.058 4.039-.044.974-.207 1.504-.344 1.856-.181.467-.398.8-.748 1.15a3.09 3.09 0 0 1-1.15.747c-.352.137-.88.3-1.856.344-1.054.049-1.37.059-4.04.059-2.669 0-2.985-.01-4.039-.059-.974-.044-1.504-.207-1.856-.344a3.097 3.097 0 0 1-1.15-.748 3.097 3.097 0 0 1-.747-1.149c-.137-.352-.3-.882-.344-1.856-.049-1.054-.059-1.37-.059-4.04s.01-2.985.059-4.04c.044-.974.207-1.503.344-1.856a3.1 3.1 0 0 1 .748-1.15c.35-.349.682-.566 1.149-.747.352-.137.882-.3 1.856-.344 1.054-.048 1.37-.058 4.04-.058z"/><path d="M11.997 15.335a3.332 3.332 0 1 1 0-6.664 3.332 3.332 0 0 1 0 6.664zm0-8.465a5.133 5.133 0 1 0 0 10.267 5.133 5.133 0 0 0 0-10.267zm6.536-.203a1.2 1.2 0 1 1-2.4 0 1.2 1.2 0 0 1 2.4 0"/></g></svg>