<svg width="24" height="24" xmlns="http://www.w3.org/2000/svg"><path d="M4.285 15.843l1.286-1.286-.643-.642a.91.91 0 0 1 0-1.287l7.715-7.713a.9.9 0 0 1 .642-.267c.244 0 .471.095.644.267l.643.642 1.284-1.284-.641-.643c-1.031-1.03-2.829-1.03-3.858 0l-7.713 7.713a2.73 2.73 0 0 0 0 3.857l.641.643zm16.071-7.069l-.643-.643-1.286 1.285.644.643a.9.9 0 0 1 .265.643c0 .242-.094.47-.265.642l-7.714 7.714a.933.933 0 0 1-1.286 0l-.643-.643L8.143 19.7l.642.643c.516.515 1.2.799 1.93.799.728 0 1.412-.284 1.928-.8l7.713-7.713a2.706 2.706 0 0 0 .799-1.927 2.71 2.71 0 0 0-.799-1.928zM19.07 3.63l1.286 1.285-6.428 6.429-1.286-1.286zm-9 8.999l1.286 1.284-6.429 6.43-1.285-1.284z" fill="#7DC9DA"/></svg>