<svg width="24" height="24" xmlns="http://www.w3.org/2000/svg"><path d="M9.522 15.149V8.358l6.484 3.407-6.484 3.384zM23.76 7.18s-.234-1.666-.954-2.4c-.912-.962-1.935-.967-2.405-1.023-3.358-.244-8.396-.244-8.396-.244h-.01s-5.038 0-8.397.244c-.469.056-1.491.061-2.404 1.024C.474 5.515.24 7.18.24 7.18S0 9.137 0 11.093v1.834c0 1.956.24 3.912.24 3.912s.234 1.665.954 2.399c.913.962 2.112.932 2.646 1.033 1.92.185 8.16.243 8.16.243s5.043-.008 8.401-.253c.47-.056 1.493-.06 2.405-1.023.72-.734.954-2.4.954-2.4s.24-1.955.24-3.911v-1.834c0-1.956-.24-3.912-.24-3.912z" fill="#353535" fill-rule="evenodd"/></svg>