<svg width="24" height="24" xmlns="http://www.w3.org/2000/svg"><path d="M12 2c5.514 0 10 4.486 10 10s-4.486 10-10 10S2 17.514 2 12 6.486 2 12 2zM3.908 12a8.092 8.092 0 0 0 4.56 7.282L4.609 8.707a8.06 8.06 0 0 0-.7 3.293zM12 20.092c.942 0 1.846-.163 2.687-.459a.76.76 0 0 1-.058-.111l-2.487-6.815-2.428 7.055c.725.213 1.492.33 2.286.33zm1.115-11.886l2.924 8.698.808-2.697c.349-1.12.615-1.923.615-2.615 0-1-.36-1.693-.667-2.232-.41-.667-.795-1.231-.795-1.898 0-.744.564-1.436 1.36-1.436.035 0 .07.004.104.007A8.061 8.061 0 0 0 12 3.908a8.082 8.082 0 0 0-6.76 3.647c.19.006.368.01.52.01.846 0 2.156-.103 2.156-.103.436-.025.488.615.052.667 0 0-.438.051-.926.077L9.99 16.97l1.77-5.311-1.26-3.454a14.952 14.952 0 0 1-.849-.077c-.436-.026-.385-.692.052-.667 0 0 1.336.103 2.13.103.847 0 2.157-.103 2.157-.103.437-.025.488.615.052.667 0 0-.439.051-.926.077zm5.985-.088c.035.257.055.534.055.832 0 .82-.154 1.744-.616 2.898l-2.471 7.146A8.087 8.087 0 0 0 20.09 12c0-1.407-.36-2.73-.99-3.882z" stroke="#D24632" stroke-width=".2" fill="#D24632" fill-rule="evenodd"/></svg>