<svg width="24" height="24" xmlns="http://www.w3.org/2000/svg"><path d="M7.548 21.4c-2.78 0-5.369-.81-7.548-2.2.385.045.777.068 1.175.068 2.306 0 4.43-.783 6.115-2.096a4.925 4.925 0 0 1-4.6-3.402 4.943 4.943 0 0 0 2.224-.084c-2.253-.45-3.95-2.429-3.95-4.802v-.061a4.924 4.924 0 0 0 2.23.612 4.889 4.889 0 0 1-1.523-6.539A14.004 14.004 0 0 0 11.82 8.014a4.892 4.892 0 0 1-.128-1.117C11.692 4.193 13.897 2 16.616 2a4.93 4.93 0 0 1 3.594 1.547 9.893 9.893 0 0 0 3.127-1.189 4.917 4.917 0 0 1-2.165 2.71A9.886 9.886 0 0 0 24 4.297a9.978 9.978 0 0 1-2.457 2.535c.01.21.014.421.014.633 0 6.472-4.952 13.935-14.01 13.935" fill="#7DC9DA" fill-rule="evenodd"/></svg>