<svg width="24" height="24" xmlns="http://www.w3.org/2000/svg"><g fill="#353535"><path d="M13.68 2.5v1.905h4.367L3.482 18.97l1.347 1.346L19.394 5.751v4.368h1.905V2.5zM3.877 9.84L6.06 7.656 8.244 9.84l1.347-1.347L7.407 6.31l2.184-2.184-1.347-1.347L6.06 4.963 3.877 2.779 2.53 4.126 4.714 6.31 2.53 8.493z"/><path d="M17.013 12.976a4.29 4.29 0 0 0-4.286 4.286 4.29 4.29 0 0 0 4.286 4.286 4.29 4.29 0 0 0 4.286-4.286 4.29 4.29 0 0 0-4.286-4.286zm0 6.667a2.384 2.384 0 0 1-2.381-2.381 2.384 2.384 0 0 1 2.38-2.381 2.384 2.384 0 0 1 2.382 2.38 2.384 2.384 0 0 1-2.381 2.382z"/></g></svg>